# xmcd CD database file
#
# Track frame offsets:
#	150
#	17126
#	37108
#	55055
#	70484
#	84924
#	101637
#	120828
#	131488
#	152837
#	169478
#	186427
#
# Disc length: 2664 seconds
#
# Revision: 0
# Processed by: cddbd v1.4PL0 Copyright (c) Steve Scherf et al.
# Submitted via: CDex 1.50
#
DISCID=a10a660c
DTITLE=The New Krokodillos - The New Krokodillos
DYEAR=2003
DGENRE=Jazz
TTITLE0=Muskrat ramble
TTITLE1=Please don't talk about me
TTITLE2=New Orleans
TTITLE3=I'm going away...
TTITLE4=Call of the freaks
TTITLE5=Strutting with some
TTITLE6=Shine
TTITLE7=At The Jazz Band Ball
TTITLE8=Honeysuckle Rose
TTITLE9=Cakewalking babies from home
TTITLE10=Who's sorry now?
TTITLE11=Musical flat
EXTD=YEAR: 2003
EXTT0=
EXTT1=
EXTT2=
EXTT3=
EXTT4=
EXTT5=
EXTT6=
EXTT7=
EXTT8=
EXTT9=
EXTT10=
EXTT11=
PLAYORDER=
